#define hdd_width 16
#define hdd_height 16
static unsigned char hdd_bits[] = {
   0x00, 0x00, 0x00, 0x00, 0x00, 0x00, 0x00, 0x00, 0xf8, 0x1f, 0xfc, 0x3f,
   0xfc, 0x3f, 0xfc, 0x3f, 0xfe, 0x3f, 0xfe, 0x7f, 0xfe, 0x7f, 0xff, 0x7f,
   0xfe, 0x7f, 0x00, 0x00, 0x00, 0x00, 0x00, 0x00 };
